<mxfile host="app.diagrams.net" modified="2024-03-21T09:00:52.250Z" agent="Mozilla/5.0 (Macintosh; Intel Mac OS X 10_15_7) AppleWebKit/605.1.15 (KHTML, like Gecko) Version/16.3 Safari/605.1.15" version="24.0.7" etag="5Jdytu32xcFbQ80-a3_v" type="github">
  <diagram name="Page-1" id="FenLHBf8Au9PtO7P6yw-">
    <mxGraphModel>
      <root>
        <mxCell id="0" />
        <mxCell id="1" parent="0" />
      </root>
    </mxGraphModel>
  </diagram>
</mxfile>
